<mxfile host="app.diagrams.net" agent="Mozilla/5.0 (Windows NT 10.0; Win64; x64) AppleWebKit/537.36 (KHTML, like Gecko) Chrome/137.0.0.0 Safari/537.36" version="27.1.6">
  <diagram name="Página-1" id="HSK3ik47usQNi2rTsoTP">
    <mxGraphModel grid="1" page="1" gridSize="10" guides="1" tooltips="1" connect="1" arrows="1" fold="1" pageScale="1" pageWidth="827" pageHeight="1169" math="0" shadow="0">
      <root>
        <mxCell id="0" />
        <mxCell id="1" parent="0" />
        <mxCell id="JNzcn9tIalEv70mOixxw-5" value="" style="ellipse;html=1;shape=endState;fillColor=#000000;strokeColor=#000000;" vertex="1" parent="1">
          <mxGeometry x="383" y="1450" width="30" height="30" as="geometry" />
        </mxCell>
        <mxCell id="JNzcn9tIalEv70mOixxw-6" value="" style="ellipse;html=1;shape=startState;fillColor=#000000;strokeColor=#000000;" vertex="1" parent="1">
          <mxGeometry x="384" y="30" width="30" height="30" as="geometry" />
        </mxCell>
        <mxCell id="JNzcn9tIalEv70mOixxw-7" value="" style="edgeStyle=orthogonalEdgeStyle;html=1;verticalAlign=bottom;endArrow=open;endSize=8;strokeColor=light-dark(#000000,#EDEDED);rounded=0;" edge="1" parent="1" source="JNzcn9tIalEv70mOixxw-6" target="JNzcn9tIalEv70mOixxw-8">
          <mxGeometry relative="1" as="geometry">
            <mxPoint x="399" y="130" as="targetPoint" />
          </mxGeometry>
        </mxCell>
        <mxCell id="JNzcn9tIalEv70mOixxw-21" style="edgeStyle=orthogonalEdgeStyle;rounded=0;orthogonalLoop=1;jettySize=auto;html=1;exitX=0.5;exitY=1;exitDx=0;exitDy=0;entryX=0.5;entryY=0;entryDx=0;entryDy=0;" edge="1" parent="1" source="JNzcn9tIalEv70mOixxw-8" target="JNzcn9tIalEv70mOixxw-24">
          <mxGeometry relative="1" as="geometry">
            <mxPoint x="400" y="200" as="targetPoint" />
          </mxGeometry>
        </mxCell>
        <mxCell id="JNzcn9tIalEv70mOixxw-8" value="Presentacion de los productos para seleccionar" style="html=1;align=center;verticalAlign=top;rounded=1;absoluteArcSize=1;arcSize=10;dashed=0;whiteSpace=wrap;" vertex="1" parent="1">
          <mxGeometry x="313.5" y="100" width="171" height="50" as="geometry" />
        </mxCell>
        <mxCell id="JNzcn9tIalEv70mOixxw-29" style="edgeStyle=orthogonalEdgeStyle;rounded=0;orthogonalLoop=1;jettySize=auto;html=1;exitX=0.5;exitY=1;exitDx=0;exitDy=0;entryX=0.5;entryY=0;entryDx=0;entryDy=0;" edge="1" parent="1" source="JNzcn9tIalEv70mOixxw-24" target="JNzcn9tIalEv70mOixxw-28">
          <mxGeometry relative="1" as="geometry" />
        </mxCell>
        <mxCell id="-_buIajs6VZoegRODqF9-25" style="edgeStyle=orthogonalEdgeStyle;rounded=0;orthogonalLoop=1;jettySize=auto;html=1;exitX=1;exitY=0.5;exitDx=0;exitDy=0;entryX=0.5;entryY=0;entryDx=0;entryDy=0;" edge="1" parent="1" source="JNzcn9tIalEv70mOixxw-24" target="JNzcn9tIalEv70mOixxw-25">
          <mxGeometry relative="1" as="geometry" />
        </mxCell>
        <mxCell id="JNzcn9tIalEv70mOixxw-24" value="Utilizo filtros" style="rhombus;" vertex="1" parent="1">
          <mxGeometry x="350.22" y="190" width="95.82" height="60" as="geometry" />
        </mxCell>
        <mxCell id="JNzcn9tIalEv70mOixxw-31" style="edgeStyle=orthogonalEdgeStyle;rounded=0;orthogonalLoop=1;jettySize=auto;html=1;entryX=0.75;entryY=0;entryDx=0;entryDy=0;exitX=0.5;exitY=1;exitDx=0;exitDy=0;" edge="1" parent="1" source="JNzcn9tIalEv70mOixxw-25" target="JNzcn9tIalEv70mOixxw-28">
          <mxGeometry relative="1" as="geometry">
            <mxPoint x="630" y="341" as="sourcePoint" />
          </mxGeometry>
        </mxCell>
        <mxCell id="JNzcn9tIalEv70mOixxw-25" value="Se reduce los productos mostrados a las preferencias del usuario" style="html=1;align=center;verticalAlign=top;rounded=1;absoluteArcSize=1;arcSize=10;dashed=0;whiteSpace=wrap;" vertex="1" parent="1">
          <mxGeometry x="580" y="270" width="171" height="50" as="geometry" />
        </mxCell>
        <mxCell id="JNzcn9tIalEv70mOixxw-27" value="Si" style="text;html=1;align=center;verticalAlign=middle;resizable=0;points=[];autosize=1;strokeColor=none;fillColor=none;" vertex="1" parent="1">
          <mxGeometry x="450.63" y="190" width="30" height="30" as="geometry" />
        </mxCell>
        <mxCell id="-_buIajs6VZoegRODqF9-19" style="edgeStyle=orthogonalEdgeStyle;rounded=0;orthogonalLoop=1;jettySize=auto;html=1;exitX=0.5;exitY=1;exitDx=0;exitDy=0;entryX=0.5;entryY=0;entryDx=0;entryDy=0;" edge="1" parent="1" source="JNzcn9tIalEv70mOixxw-28" target="-_buIajs6VZoegRODqF9-18">
          <mxGeometry relative="1" as="geometry" />
        </mxCell>
        <mxCell id="JNzcn9tIalEv70mOixxw-30" value="No" style="text;html=1;align=center;verticalAlign=middle;resizable=0;points=[];autosize=1;strokeColor=none;fillColor=none;" vertex="1" parent="1">
          <mxGeometry x="400" y="290" width="40" height="30" as="geometry" />
        </mxCell>
        <mxCell id="JNzcn9tIalEv70mOixxw-28" value="El usuario selecciona producto y se carga en el carrito&amp;nbsp;" style="html=1;align=center;verticalAlign=top;rounded=1;absoluteArcSize=1;arcSize=10;dashed=0;whiteSpace=wrap;" vertex="1" parent="1">
          <mxGeometry x="313.5" y="380" width="169.25" height="40" as="geometry" />
        </mxCell>
        <mxCell id="-_buIajs6VZoegRODqF9-20" style="edgeStyle=orthogonalEdgeStyle;rounded=0;orthogonalLoop=1;jettySize=auto;html=1;exitX=0;exitY=0.5;exitDx=0;exitDy=0;entryX=0;entryY=0.5;entryDx=0;entryDy=0;" edge="1" parent="1" source="-_buIajs6VZoegRODqF9-18" target="JNzcn9tIalEv70mOixxw-8">
          <mxGeometry relative="1" as="geometry">
            <mxPoint x="310" y="180" as="targetPoint" />
            <Array as="points">
              <mxPoint x="260" y="490" />
              <mxPoint x="260" y="125" />
            </Array>
          </mxGeometry>
        </mxCell>
        <mxCell id="-_buIajs6VZoegRODqF9-22" style="edgeStyle=orthogonalEdgeStyle;rounded=0;orthogonalLoop=1;jettySize=auto;html=1;exitX=0.5;exitY=1;exitDx=0;exitDy=0;labelPosition=right;verticalLabelPosition=middle;align=left;verticalAlign=middle;entryX=0.5;entryY=0;entryDx=0;entryDy=0;" edge="1" parent="1" source="-_buIajs6VZoegRODqF9-18" target="JNzcn9tIalEv70mOixxw-34">
          <mxGeometry relative="1" as="geometry">
            <mxPoint x="399" y="590" as="targetPoint" />
          </mxGeometry>
        </mxCell>
        <mxCell id="-_buIajs6VZoegRODqF9-23" value="No" style="edgeLabel;html=1;align=center;verticalAlign=middle;resizable=0;points=[];" connectable="0" vertex="1" parent="-_buIajs6VZoegRODqF9-22">
          <mxGeometry x="-0.1355" y="-4" relative="1" as="geometry">
            <mxPoint x="18" as="offset" />
          </mxGeometry>
        </mxCell>
        <mxCell id="-_buIajs6VZoegRODqF9-18" value="Seguir cargando &#xa;productos" style="rhombus;" vertex="1" parent="1">
          <mxGeometry x="329" y="440" width="140" height="100" as="geometry" />
        </mxCell>
        <mxCell id="-_buIajs6VZoegRODqF9-21" value="Si" style="text;html=1;align=center;verticalAlign=middle;resizable=0;points=[];autosize=1;strokeColor=none;fillColor=none;" vertex="1" parent="1">
          <mxGeometry x="285" y="468" width="30" height="30" as="geometry" />
        </mxCell>
        <mxCell id="JNzcn9tIalEv70mOixxw-37" style="edgeStyle=orthogonalEdgeStyle;rounded=0;orthogonalLoop=1;jettySize=auto;html=1;exitX=0.5;exitY=1;exitDx=0;exitDy=0;entryX=0.5;entryY=0;entryDx=0;entryDy=0;" edge="1" parent="1" source="JNzcn9tIalEv70mOixxw-34" target="JNzcn9tIalEv70mOixxw-40">
          <mxGeometry relative="1" as="geometry">
            <mxPoint x="398.1199999999999" y="650" as="targetPoint" />
          </mxGeometry>
        </mxCell>
        <mxCell id="JNzcn9tIalEv70mOixxw-34" value="El usuario accede a la gestión del carrito&lt;div&gt;&lt;br&gt;&lt;/div&gt;" style="html=1;align=center;verticalAlign=top;rounded=1;absoluteArcSize=1;arcSize=10;dashed=0;whiteSpace=wrap;" vertex="1" parent="1">
          <mxGeometry x="313.5" y="575" width="169.25" height="40" as="geometry" />
        </mxCell>
        <mxCell id="Yln6u2fBM4GjJW_VZa77-3" style="edgeStyle=orthogonalEdgeStyle;rounded=0;orthogonalLoop=1;jettySize=auto;html=1;exitX=0.5;exitY=1;exitDx=0;exitDy=0;entryX=0.5;entryY=0;entryDx=0;entryDy=0;" edge="1" parent="1" source="JNzcn9tIalEv70mOixxw-39" target="Yln6u2fBM4GjJW_VZa77-7">
          <mxGeometry relative="1" as="geometry">
            <mxPoint x="398" y="860" as="targetPoint" />
          </mxGeometry>
        </mxCell>
        <mxCell id="JNzcn9tIalEv70mOixxw-39" value="El usuario ingresa los datos de contacto y domicilio de envió&lt;div&gt;&lt;br&gt;&lt;/div&gt;" style="html=1;align=center;verticalAlign=top;rounded=1;absoluteArcSize=1;arcSize=10;dashed=0;whiteSpace=wrap;" vertex="1" parent="1">
          <mxGeometry x="313.5" y="770" width="169.25" height="40" as="geometry" />
        </mxCell>
        <mxCell id="JNzcn9tIalEv70mOixxw-41" style="edgeStyle=orthogonalEdgeStyle;rounded=0;orthogonalLoop=1;jettySize=auto;html=1;exitX=1;exitY=0.5;exitDx=0;exitDy=0;entryX=1;entryY=0.5;entryDx=0;entryDy=0;" edge="1" parent="1" source="JNzcn9tIalEv70mOixxw-40" target="JNzcn9tIalEv70mOixxw-34">
          <mxGeometry relative="1" as="geometry">
            <mxPoint x="600" y="590" as="targetPoint" />
            <Array as="points">
              <mxPoint x="560" y="695" />
              <mxPoint x="560" y="595" />
            </Array>
          </mxGeometry>
        </mxCell>
        <mxCell id="Yln6u2fBM4GjJW_VZa77-1" style="edgeStyle=orthogonalEdgeStyle;rounded=0;orthogonalLoop=1;jettySize=auto;html=1;exitX=0.5;exitY=1;exitDx=0;exitDy=0;entryX=0.5;entryY=0;entryDx=0;entryDy=0;" edge="1" parent="1" source="JNzcn9tIalEv70mOixxw-40" target="JNzcn9tIalEv70mOixxw-39">
          <mxGeometry relative="1" as="geometry" />
        </mxCell>
        <mxCell id="JNzcn9tIalEv70mOixxw-40" value="Terminó la &#xa;gestión" style="rhombus;" vertex="1" parent="1">
          <mxGeometry x="345.63" y="655" width="105" height="80" as="geometry" />
        </mxCell>
        <mxCell id="JNzcn9tIalEv70mOixxw-42" value="No" style="text;html=1;align=center;verticalAlign=middle;resizable=0;points=[];autosize=1;strokeColor=none;fillColor=none;" vertex="1" parent="1">
          <mxGeometry x="447.7" y="668" width="40" height="30" as="geometry" />
        </mxCell>
        <mxCell id="-_buIajs6VZoegRODqF9-26" value="Abrir la página web" style="text;html=1;align=center;verticalAlign=middle;resizable=0;points=[];autosize=1;strokeColor=none;fillColor=none;" vertex="1" parent="1">
          <mxGeometry x="334.01" width="130" height="30" as="geometry" />
        </mxCell>
        <mxCell id="Yln6u2fBM4GjJW_VZa77-2" value="Si" style="text;html=1;align=center;verticalAlign=middle;resizable=0;points=[];autosize=1;strokeColor=none;fillColor=none;" vertex="1" parent="1">
          <mxGeometry x="399" y="730" width="30" height="30" as="geometry" />
        </mxCell>
        <mxCell id="Yln6u2fBM4GjJW_VZa77-5" style="edgeStyle=orthogonalEdgeStyle;rounded=0;orthogonalLoop=1;jettySize=auto;html=1;exitX=0.5;exitY=1;exitDx=0;exitDy=0;entryX=0.5;entryY=0;entryDx=0;entryDy=0;" edge="1" parent="1" source="JNzcn9tIalEv70mOixxw-43" target="JNzcn9tIalEv70mOixxw-44">
          <mxGeometry relative="1" as="geometry" />
        </mxCell>
        <mxCell id="JNzcn9tIalEv70mOixxw-43" value="&lt;div&gt;El usuario completa pago con el medio seleccionado&lt;/div&gt;" style="html=1;align=center;verticalAlign=top;rounded=1;absoluteArcSize=1;arcSize=10;dashed=0;whiteSpace=wrap;" vertex="1" parent="1">
          <mxGeometry x="313.5" y="970" width="169.25" height="40" as="geometry" />
        </mxCell>
        <mxCell id="JNzcn9tIalEv70mOixxw-46" style="edgeStyle=orthogonalEdgeStyle;rounded=0;orthogonalLoop=1;jettySize=auto;html=1;exitX=1;exitY=0.5;exitDx=0;exitDy=0;entryX=1;entryY=0.5;entryDx=0;entryDy=0;" edge="1" parent="1" source="JNzcn9tIalEv70mOixxw-44" target="JNzcn9tIalEv70mOixxw-43">
          <mxGeometry relative="1" as="geometry" />
        </mxCell>
        <mxCell id="JNzcn9tIalEv70mOixxw-49" style="edgeStyle=orthogonalEdgeStyle;rounded=0;orthogonalLoop=1;jettySize=auto;html=1;entryX=0.5;entryY=0;entryDx=0;entryDy=0;exitX=0.5;exitY=1;exitDx=0;exitDy=0;" edge="1" parent="1" source="JNzcn9tIalEv70mOixxw-44" target="X5Z4fmXss3xnEEH2pksf-3">
          <mxGeometry relative="1" as="geometry">
            <mxPoint x="398" y="1180" as="sourcePoint" />
            <mxPoint x="398.135" y="1189" as="targetPoint" />
          </mxGeometry>
        </mxCell>
        <mxCell id="JNzcn9tIalEv70mOixxw-44" value="Error &#xa;en pago" style="rhombus;" vertex="1" parent="1">
          <mxGeometry x="360.12" y="1060" width="75.99" height="60" as="geometry" />
        </mxCell>
        <mxCell id="Yln6u2fBM4GjJW_VZa77-6" value="Si" style="text;html=1;align=center;verticalAlign=middle;resizable=0;points=[];autosize=1;strokeColor=none;fillColor=none;" vertex="1" parent="1">
          <mxGeometry x="428.12" y="1060" width="30" height="30" as="geometry" />
        </mxCell>
        <mxCell id="JNzcn9tIalEv70mOixxw-48" style="edgeStyle=orthogonalEdgeStyle;rounded=0;orthogonalLoop=1;jettySize=auto;html=1;exitX=0.5;exitY=1;exitDx=0;exitDy=0;entryX=0.5;entryY=0;entryDx=0;entryDy=0;" edge="1" parent="1" source="X5Z4fmXss3xnEEH2pksf-2" target="JNzcn9tIalEv70mOixxw-5">
          <mxGeometry relative="1" as="geometry">
            <mxPoint x="399.015" y="1430" as="sourcePoint" />
          </mxGeometry>
        </mxCell>
        <mxCell id="Yln6u2fBM4GjJW_VZa77-7" value="Error &#xa;en datos" style="rhombus;" vertex="1" parent="1">
          <mxGeometry x="358.12" y="850" width="80" height="70" as="geometry" />
        </mxCell>
        <mxCell id="JNzcn9tIalEv70mOixxw-50" value="No" style="text;html=1;align=center;verticalAlign=middle;resizable=0;points=[];autosize=1;strokeColor=none;fillColor=none;" vertex="1" parent="1">
          <mxGeometry x="400" y="1130" width="40" height="30" as="geometry" />
        </mxCell>
        <mxCell id="Yln6u2fBM4GjJW_VZa77-9" style="edgeStyle=orthogonalEdgeStyle;rounded=0;orthogonalLoop=1;jettySize=auto;html=1;exitX=0.5;exitY=1;exitDx=0;exitDy=0;entryX=0.5;entryY=0;entryDx=0;entryDy=0;" edge="1" parent="1" source="Yln6u2fBM4GjJW_VZa77-7" target="JNzcn9tIalEv70mOixxw-43">
          <mxGeometry relative="1" as="geometry" />
        </mxCell>
        <mxCell id="Yln6u2fBM4GjJW_VZa77-11" value="Si" style="text;html=1;align=center;verticalAlign=middle;resizable=0;points=[];autosize=1;strokeColor=none;fillColor=none;" vertex="1" parent="1">
          <mxGeometry x="434.01" y="880" width="30" height="30" as="geometry" />
        </mxCell>
        <mxCell id="Yln6u2fBM4GjJW_VZa77-10" style="edgeStyle=orthogonalEdgeStyle;rounded=0;orthogonalLoop=1;jettySize=auto;html=1;exitX=1;exitY=0.5;exitDx=0;exitDy=0;entryX=1;entryY=0.5;entryDx=0;entryDy=0;" edge="1" parent="1" source="Yln6u2fBM4GjJW_VZa77-7" target="JNzcn9tIalEv70mOixxw-39">
          <mxGeometry relative="1" as="geometry" />
        </mxCell>
        <mxCell id="Yln6u2fBM4GjJW_VZa77-12" value="No" style="text;html=1;align=center;verticalAlign=middle;resizable=0;points=[];autosize=1;strokeColor=none;fillColor=none;" vertex="1" parent="1">
          <mxGeometry x="394" y="920" width="40" height="30" as="geometry" />
        </mxCell>
        <mxCell id="X5Z4fmXss3xnEEH2pksf-5" style="edgeStyle=orthogonalEdgeStyle;rounded=0;orthogonalLoop=1;jettySize=auto;html=1;exitX=0.5;exitY=1;exitDx=0;exitDy=0;entryX=0.5;entryY=0;entryDx=0;entryDy=0;" edge="1" parent="1" source="X5Z4fmXss3xnEEH2pksf-1" target="X5Z4fmXss3xnEEH2pksf-2">
          <mxGeometry relative="1" as="geometry" />
        </mxCell>
        <mxCell id="X5Z4fmXss3xnEEH2pksf-1" value="Almacenar factura" style="rounded=1;whiteSpace=wrap;html=1;" vertex="1" parent="1">
          <mxGeometry x="338.11" y="1270" width="120" height="60" as="geometry" />
        </mxCell>
        <mxCell id="X5Z4fmXss3xnEEH2pksf-2" value="Envía copia al carreo electrónico el usuario" style="rounded=1;whiteSpace=wrap;html=1;" vertex="1" parent="1">
          <mxGeometry x="338" y="1360" width="120" height="60" as="geometry" />
        </mxCell>
        <mxCell id="X5Z4fmXss3xnEEH2pksf-4" style="edgeStyle=orthogonalEdgeStyle;rounded=0;orthogonalLoop=1;jettySize=auto;html=1;exitX=0.5;exitY=1;exitDx=0;exitDy=0;entryX=0.5;entryY=0;entryDx=0;entryDy=0;" edge="1" parent="1" source="X5Z4fmXss3xnEEH2pksf-3" target="X5Z4fmXss3xnEEH2pksf-1">
          <mxGeometry relative="1" as="geometry" />
        </mxCell>
        <mxCell id="X5Z4fmXss3xnEEH2pksf-3" value="Emitir factura" style="rounded=1;whiteSpace=wrap;html=1;" vertex="1" parent="1">
          <mxGeometry x="338" y="1180" width="120" height="60" as="geometry" />
        </mxCell>
        <mxCell id="X5Z4fmXss3xnEEH2pksf-7" style="edgeStyle=orthogonalEdgeStyle;rounded=0;orthogonalLoop=1;jettySize=auto;html=1;exitX=0;exitY=0.5;exitDx=0;exitDy=0;exitPerimeter=0;entryX=1;entryY=0;entryDx=0;entryDy=0;dashed=1;" edge="1" parent="1" source="X5Z4fmXss3xnEEH2pksf-6" target="JNzcn9tIalEv70mOixxw-24">
          <mxGeometry relative="1" as="geometry">
            <Array as="points">
              <mxPoint x="530" y="145" />
              <mxPoint x="530" y="170" />
              <mxPoint x="422" y="170" />
            </Array>
          </mxGeometry>
        </mxCell>
        <mxCell id="X5Z4fmXss3xnEEH2pksf-6" value="Se puede que se aplique más de un filtro al mimo tiempo" style="shape=note2;boundedLbl=1;whiteSpace=wrap;html=1;size=25;verticalAlign=top;align=center;" vertex="1" parent="1">
          <mxGeometry x="550" y="110" width="190" height="70" as="geometry" />
        </mxCell>
        <mxCell id="X5Z4fmXss3xnEEH2pksf-9" style="edgeStyle=orthogonalEdgeStyle;rounded=0;orthogonalLoop=1;jettySize=auto;html=1;exitX=0;exitY=0;exitDx=190;exitDy=52.5;exitPerimeter=0;entryX=0;entryY=0.5;entryDx=0;entryDy=0;dashed=1;" edge="1" parent="1" source="X5Z4fmXss3xnEEH2pksf-8" target="JNzcn9tIalEv70mOixxw-34">
          <mxGeometry relative="1" as="geometry">
            <Array as="points">
              <mxPoint x="240" y="595" />
            </Array>
          </mxGeometry>
        </mxCell>
        <mxCell id="X5Z4fmXss3xnEEH2pksf-8" value="En cualquier en adelante se puede volver&amp;nbsp;a la selección de producto&amp;nbsp;" style="shape=note2;boundedLbl=1;whiteSpace=wrap;html=1;size=25;verticalAlign=top;align=center;" vertex="1" parent="1">
          <mxGeometry x="50" y="545" width="190" height="80" as="geometry" />
        </mxCell>
      </root>
    </mxGraphModel>
  </diagram>
</mxfile>
